<svg version="1.1" id="Layer_1" xmlns="http://www.w3.org/2000/svg" xmlns:xlink="http://www.w3.org/1999/xlink" x="0px" y="0px"
	 width="100%" viewBox="0 0 500 500" enable-background="new 0 0 500 500" xml:space="preserve">
<path fill="#1800AD" opacity="1.000000" stroke="none" 
	d="
M315.000000,501.000000 
	C210.000031,501.000000 105.500053,501.000000 1.000056,501.000000 
	C1.000037,334.333405 1.000037,167.666794 1.000019,1.000146 
	C167.666565,1.000097 334.333130,1.000097 500.999756,1.000049 
	C500.999847,167.666519 500.999847,334.333038 500.999939,500.999786 
	C439.166656,501.000000 377.333344,501.000000 315.000000,501.000000 
M227.039368,186.518784 
	C227.307037,186.333832 227.574707,186.148865 228.248947,186.506775 
	C231.088791,188.996750 233.948425,191.464630 236.762207,193.983719 
	C239.008392,195.994644 241.779907,197.707581 243.311325,200.177185 
	C249.352600,209.919403 254.957611,219.931244 260.836243,229.776306 
	C261.596375,231.049316 262.979309,232.814529 264.125214,232.853882 
	C271.998444,233.124405 279.885376,232.996017 288.539673,232.996017 
	C283.722412,225.355789 279.360413,218.526978 275.090668,211.640976 
	C270.653229,204.484543 264.689178,199.386658 256.197601,197.186859 
	C257.586792,196.419220 258.941620,196.072281 260.304474,195.760223 
	C276.937073,191.951691 285.671112,181.569046 286.534790,164.570633 
	C287.474792,146.069839 279.651825,135.133011 262.527954,133.515442 
	C249.819977,132.314987 236.892044,132.497742 224.121704,133.180023 
	C212.375931,133.807571 203.207504,144.722076 203.178802,156.570129 
	C203.119919,180.878632 203.155792,205.187363 203.174957,229.495987 
	C203.175827,230.601654 203.395020,231.707153 203.508698,232.776703 
	C215.959747,233.003952 225.579697,224.118423 225.980316,211.988937 
	C226.254944,203.674088 226.143417,195.346451 227.039368,186.518784 
M299.399719,232.129486 
	C307.343048,229.800583 311.594086,223.573318 315.338745,216.115662 
	C318.247498,225.847397 323.365570,232.308655 333.417450,232.905930 
	C338.889984,233.231110 344.412262,233.183670 349.888855,232.882050 
	C362.260376,232.200668 371.953033,224.048218 374.943970,212.147842 
	C378.597015,197.613205 375.163879,186.558350 365.196411,180.323135 
	C367.462463,178.270599 370.178131,176.494064 371.998444,174.050537 
	C383.316437,158.857269 374.120605,136.123169 355.393890,134.144287 
	C342.868317,132.820694 330.154266,133.116394 317.521851,133.010666 
	C301.824127,132.879272 293.024689,141.714890 293.003845,157.293961 
	C292.972046,181.097198 292.991028,204.900513 293.006653,228.703796 
	C293.007599,230.113831 293.169891,231.523773 293.273407,233.197571 
	C295.358124,232.880814 296.988647,232.633057 299.399719,232.129486 
M195.594833,222.935196 
	C196.624496,218.956207 198.475830,214.991135 198.543488,210.995850 
	C198.859344,192.349762 198.911392,173.691620 198.606186,155.045166 
	C198.382782,141.395554 189.317215,132.912430 175.648254,132.840652 
	C163.491852,132.776825 151.334183,132.748779 139.178268,132.850204 
	C125.746033,132.962280 117.094696,141.624008 117.019974,155.129837 
	C116.916786,173.780716 116.921898,192.432953 117.018089,211.083908 
	C117.086395,224.327652 125.722504,232.898743 138.983337,232.988327 
	C151.472580,233.072693 163.962936,232.976120 176.452606,233.017227 
	C184.329407,233.043137 190.691315,230.179535 195.594833,222.935196 
M293.092072,315.319641 
	C289.705200,303.512695 286.324890,291.703827 282.929901,279.899231 
	C278.397980,264.141479 267.740540,256.867859 251.092712,258.294922 
	C249.240616,263.184326 247.353973,268.146149 245.480881,273.113068 
	C237.810165,293.453796 230.050751,313.761749 222.510742,334.150818 
	C218.073746,346.148987 225.472839,357.389557 238.102844,357.743286 
	C242.137497,347.620941 246.218582,337.382111 250.455856,326.751434 
	C255.789047,340.428467 259.245941,342.897430 273.665100,343.015686 
	C276.489960,343.038849 277.782959,343.832458 278.548157,346.557861 
	C280.062744,351.952362 283.049866,356.647064 288.939209,357.470612 
	C294.187744,358.204559 299.620026,357.624817 305.382721,357.624817 
	C301.268585,343.482849 297.285553,329.791687 293.092072,315.319641 
M180.317947,329.931213 
	C183.292831,329.571899 186.300446,329.384094 189.236923,328.823608 
	C202.216721,326.346161 210.118195,318.969147 211.943207,305.701050 
	C213.060135,297.580811 213.048615,289.051361 211.916046,280.932770 
	C210.016739,267.318268 203.026855,260.067993 189.518021,258.750000 
	C176.479431,257.477875 163.191620,257.428558 150.111816,258.307739 
	C138.453232,259.091309 130.011719,270.010681 130.001862,281.877258 
	C129.982086,305.709534 129.995880,329.541840 129.995819,353.374115 
	C129.995819,354.840118 129.995819,356.306122 129.995819,357.759155 
	C143.145569,358.066711 152.518112,348.875244 152.886734,335.591400 
	C153.044937,329.890350 152.913208,324.181274 152.913208,317.367828 
	C157.456787,325.337219 160.452545,327.863708 167.458740,329.103363 
	C171.359116,329.793427 175.397430,329.703949 180.317947,329.931213 
M317.008820,258.338654 
	C308.437225,265.888489 307.467072,275.088623 314.719238,284.883942 
	C322.737701,295.714233 330.985626,306.382660 339.417633,316.893738 
	C341.843353,319.917542 342.052979,322.345093 340.646027,325.843353 
	C336.449432,336.277771 332.651123,346.872314 328.471619,358.005280 
	C330.742889,358.005280 332.351868,358.003601 333.960815,358.005554 
	C349.668945,358.024506 354.337982,354.792633 359.904572,340.015106 
	C369.560455,314.381744 379.214630,288.747681 388.848236,263.105957 
	C389.417603,261.590454 389.798309,260.004059 390.399628,258.010376 
	C387.487457,258.010376 385.020721,258.006073 382.553986,258.011139 
	C370.516937,258.035736 364.662079,262.070892 360.319550,273.423645 
	C356.879547,282.416840 353.510223,291.437042 350.079285,300.433716 
	C349.596008,301.701080 348.940704,302.902802 348.365021,304.134918 
	C348.647583,297.408051 348.325409,291.053955 344.111694,285.715485 
	C336.895447,276.573212 329.515259,267.556824 322.000763,258.659149 
	C321.273193,257.797668 319.120911,258.139404 317.008820,258.338654 
M382.103577,218.959061 
	C381.615631,223.503998 381.127655,228.048935 380.630615,232.678543 
	C388.888611,232.678543 396.278839,232.678543 403.543304,232.678543 
	C403.543304,199.147598 403.543304,165.944641 403.543304,132.730927 
	C389.763214,133.258636 381.187622,141.890961 381.019806,155.239304 
	C380.900421,164.737015 380.995239,174.237411 380.994812,183.736618 
	C380.994507,190.345505 380.994781,196.954391 380.994781,203.921997 
	C386.440308,203.921997 391.342743,203.921997 396.245178,203.921997 
	C389.776642,207.104202 384.938110,211.529800 382.103577,218.959061 
z"/>
<path fill="#FDFCFE" opacity="1.000000" stroke="none" 
	d="
M299.009460,232.257385 
	C296.988647,232.633057 295.358124,232.880814 293.273407,233.197571 
	C293.169891,231.523773 293.007599,230.113831 293.006653,228.703796 
	C292.991028,204.900513 292.972046,181.097198 293.003845,157.293961 
	C293.024689,141.714890 301.824127,132.879272 317.521851,133.010666 
	C330.154266,133.116394 342.868317,132.820694 355.393890,134.144287 
	C374.120605,136.123169 383.316437,158.857269 371.998444,174.050537 
	C370.178131,176.494064 367.462463,178.270599 365.196411,180.323135 
	C375.163879,186.558350 378.597015,197.613205 374.943970,212.147842 
	C371.953033,224.048218 362.260376,232.200668 349.888855,232.882050 
	C344.412262,233.183670 338.889984,233.231110 333.417450,232.905930 
	C323.365570,232.308655 318.247498,225.847397 315.338745,216.115662 
	C311.594086,223.573318 307.343048,229.800583 299.009460,232.257385 
M348.159760,152.965958 
	C344.353516,152.739014 340.521210,152.114990 336.746185,152.362930 
	C327.164825,152.992218 319.376740,150.892624 316.204468,140.608414 
	C316.204468,151.864960 316.204468,163.121506 316.204468,174.786835 
	C324.951874,174.786835 333.410767,174.769119 341.869507,174.794098 
	C346.316895,174.807220 350.657745,174.788879 352.522980,169.509109 
	C354.713074,163.309753 353.341278,156.842728 348.159760,152.965958 
M348.869568,192.304443 
	C343.587341,191.954163 338.300537,191.263489 333.023956,191.334259 
	C325.320007,191.437546 318.943817,189.778046 316.164429,179.879623 
	C316.164429,192.020493 316.164429,202.429855 316.164429,213.211365 
	C325.017120,213.211365 333.625183,213.156479 342.232086,213.233292 
	C346.909424,213.275055 351.234375,212.285934 352.517456,207.281662 
	C353.825867,202.178619 354.864685,196.689941 348.869568,192.304443 
z"/>
<path fill="#FBFBFE" opacity="1.000000" stroke="none" 
	d="
M195.382919,223.239731 
	C190.691315,230.179535 184.329407,233.043137 176.452606,233.017227 
	C163.962936,232.976120 151.472580,233.072693 138.983337,232.988327 
	C125.722504,232.898743 117.086395,224.327652 117.018089,211.083908 
	C116.921898,192.432953 116.916786,173.780716 117.019974,155.129837 
	C117.094696,141.624008 125.746033,132.962280 139.178268,132.850204 
	C151.334183,132.748779 163.491852,132.776825 175.648254,132.840652 
	C189.317215,132.912430 198.382782,141.395554 198.606186,155.045166 
	C198.911392,173.691620 198.859344,192.349762 198.543488,210.995850 
	C198.475830,214.991135 196.624496,218.956207 195.382919,223.239731 
M177.440872,178.276062 
	C177.440872,169.827499 177.440872,161.378937 177.440872,152.434860 
	C170.635910,152.434860 164.511368,152.318497 158.392929,152.461990 
	C149.079315,152.680374 141.917145,149.532669 138.120697,138.854782 
	C138.120697,164.455719 138.120697,188.594254 138.120697,212.901871 
	C152.210281,214.597290 168.756790,208.582550 177.452393,226.549255 
	C177.452393,210.333908 177.452393,194.779816 177.440872,178.276062 
z"/>
<path fill="#FCFCFE" opacity="1.000000" stroke="none" 
	d="
M226.204514,187.024536 
	C226.143417,195.346451 226.254944,203.674088 225.980316,211.988937 
	C225.579697,224.118423 215.959747,233.003952 203.508698,232.776703 
	C203.395020,231.707153 203.175827,230.601654 203.174957,229.495987 
	C203.155792,205.187363 203.119919,180.878632 203.178802,156.570129 
	C203.207504,144.722076 212.375931,133.807571 224.121704,133.180023 
	C236.892044,132.497742 249.819977,132.314987 262.527954,133.515442 
	C279.651825,135.133011 287.474792,146.069839 286.534790,164.570633 
	C285.671112,181.569046 276.937073,191.951691 260.304474,195.760223 
	C258.941620,196.072281 257.586792,196.419220 256.197601,197.186859 
	C264.689178,199.386658 270.653229,204.484543 275.090668,211.640976 
	C279.360413,218.526978 283.722412,225.355789 288.539673,232.996017 
	C279.885376,232.996017 271.998444,233.124405 264.125214,232.853882 
	C262.979309,232.814529 261.596375,231.049316 260.836243,229.776306 
	C254.957611,219.931244 249.352600,209.919403 243.311325,200.177185 
	C241.779907,197.707581 239.008392,195.994644 236.762207,193.983719 
	C233.948425,191.464630 231.088791,188.996750 227.985474,185.842789 
	C227.075027,183.773834 226.428040,182.368851 226.321960,180.806580 
	C232.680984,180.634125 238.530914,180.988876 244.307648,180.492355 
	C249.357742,180.058289 254.588638,179.341690 259.260803,177.521088 
	C264.684296,175.407700 266.631744,170.133469 265.779327,163.776733 
	C264.988342,157.878021 262.594452,154.985794 256.480865,153.620468 
	C252.782639,152.794525 248.919952,152.396286 245.126801,152.366699 
	C236.641159,152.300552 230.909515,148.582184 228.002045,140.563965 
	C227.690933,139.705978 227.143036,138.933853 226.529739,137.797058 
	C226.529739,149.388092 226.579590,160.503372 226.497650,171.617676 
	C226.474762,174.719864 226.062698,177.819199 226.116669,181.275269 
	C226.337616,183.428665 226.271057,185.226593 226.204514,187.024536 
z"/>
<path fill="#FCFCFE" opacity="1.000000" stroke="none" 
	d="
M293.197327,315.710083 
	C297.285553,329.791687 301.268585,343.482849 305.382721,357.624817 
	C299.620026,357.624817 294.187744,358.204559 288.939209,357.470612 
	C283.049866,356.647064 280.062744,351.952362 278.548157,346.557861 
	C277.782959,343.832458 276.489960,343.038849 273.665100,343.015686 
	C259.245941,342.897430 255.789047,340.428467 250.455856,326.751434 
	C246.218582,337.382111 242.137497,347.620941 238.102844,357.743286 
	C225.472839,357.389557 218.073746,346.148987 222.510742,334.150818 
	C230.050751,313.761749 237.810165,293.453796 245.480881,273.113068 
	C247.353973,268.146149 249.240616,263.184326 251.092712,258.294922 
	C267.740540,256.867859 278.397980,264.141479 282.929901,279.899231 
	C286.324890,291.703827 289.705200,303.512695 293.197327,315.710083 
M263.344421,324.818939 
	C265.659760,324.818939 267.975067,324.818939 270.952332,324.818939 
	C266.819672,310.533447 262.827301,296.732880 258.834930,282.932312 
	C258.377991,283.021484 257.921051,283.110626 257.464111,283.199799 
	C261.003906,297.657288 257.084473,311.079834 251.247238,324.818939 
	C255.515244,324.818939 258.958588,324.818939 263.344421,324.818939 
z"/>
<path fill="#FDFDFE" opacity="1.000000" stroke="none" 
	d="
M179.845764,329.948517 
	C175.397430,329.703949 171.359116,329.793427 167.458740,329.103363 
	C160.452545,327.863708 157.456787,325.337219 152.913208,317.367828 
	C152.913208,324.181274 153.044937,329.890350 152.886734,335.591400 
	C152.518112,348.875244 143.145569,358.066711 129.995819,357.759155 
	C129.995819,356.306122 129.995819,354.840118 129.995819,353.374115 
	C129.995880,329.541840 129.982086,305.709534 130.001862,281.877258 
	C130.011719,270.010681 138.453232,259.091309 150.111816,258.307739 
	C163.191620,257.428558 176.479431,257.477875 189.518021,258.750000 
	C203.026855,260.067993 210.016739,267.318268 211.916046,280.932770 
	C213.048615,289.051361 213.060135,297.580811 211.943207,305.701050 
	C210.118195,318.969147 202.216721,326.346161 189.236923,328.823608 
	C186.300446,329.384094 183.292831,329.571899 179.845764,329.948517 
M153.134918,267.937317 
	C153.134918,282.498688 153.134918,297.060089 153.134918,311.523193 
	C153.763550,311.733429 154.061996,311.918762 154.361832,311.921051 
	C162.004730,311.980042 169.647736,312.049316 177.290787,312.056091 
	C188.948822,312.066437 192.757477,308.371948 193.024582,296.685028 
	C193.088821,293.874084 193.151382,290.979065 192.583405,288.254303 
	C191.191422,281.576660 188.508240,277.003967 180.142944,277.640167 
	C178.332977,277.777832 176.483276,277.360046 174.668274,277.469696 
	C164.202652,278.102203 157.051620,273.852051 153.857819,263.600128 
	C153.837158,263.533783 153.417068,263.591888 153.135040,263.591888 
	C153.135040,264.762207 153.135040,265.924683 153.134918,267.937317 
z"/>
<path fill="#FCFCFE" opacity="1.000000" stroke="none" 
	d="
M317.319397,258.130615 
	C319.120911,258.139404 321.273193,257.797668 322.000763,258.659149 
	C329.515259,267.556824 336.895447,276.573212 344.111694,285.715485 
	C348.325409,291.053955 348.647583,297.408051 348.365021,304.134918 
	C348.940704,302.902802 349.596008,301.701080 350.079285,300.433716 
	C353.510223,291.437042 356.879547,282.416840 360.319550,273.423645 
	C364.662079,262.070892 370.516937,258.035736 382.553986,258.011139 
	C385.020721,258.006073 387.487457,258.010376 390.399628,258.010376 
	C389.798309,260.004059 389.417603,261.590454 388.848236,263.105957 
	C379.214630,288.747681 369.560455,314.381744 359.904572,340.015106 
	C354.337982,354.792633 349.668945,358.024506 333.960815,358.005554 
	C332.351868,358.003601 330.742889,358.005280 328.471619,358.005280 
	C332.651123,346.872314 336.449432,336.277771 340.646027,325.843353 
	C342.052979,322.345093 341.843353,319.917542 339.417633,316.893738 
	C330.985626,306.382660 322.737701,295.714233 314.719238,284.883942 
	C307.467072,275.088623 308.437225,265.888489 317.319397,258.130615 
z"/>
<path fill="#FCFCFE" opacity="1.000000" stroke="none" 
	d="
M382.222351,218.576889 
	C384.938110,211.529800 389.776642,207.104202 396.245178,203.921997 
	C391.342743,203.921997 386.440308,203.921997 380.994781,203.921997 
	C380.994781,196.954391 380.994507,190.345505 380.994812,183.736618 
	C380.995239,174.237411 380.900421,164.737015 381.019806,155.239304 
	C381.187622,141.890961 389.763214,133.258636 403.543304,132.730927 
	C403.543304,165.944641 403.543304,199.147598 403.543304,232.678543 
	C396.278839,232.678543 388.888611,232.678543 380.630615,232.678543 
	C381.127655,228.048935 381.615631,223.503998 382.222351,218.576889 
z"/>
<path fill="#341FB6" opacity="1.000000" stroke="none" 
	d="
M226.621948,186.771667 
	C226.271057,185.226593 226.337616,183.428665 226.131927,181.314758 
	C225.859695,180.998795 225.781067,180.963882 225.781067,180.963882 
	C226.428040,182.368851 227.075027,183.773834 227.782196,185.571350 
	C227.574707,186.148865 227.307037,186.333832 226.621948,186.771667 
z"/>
<path fill="#1E06AF" opacity="1.000000" stroke="none" 
	d="
M348.541992,153.094696 
	C353.341278,156.842728 354.713074,163.309753 352.522980,169.509109 
	C350.657745,174.788879 346.316895,174.807220 341.869507,174.794098 
	C333.410767,174.769119 324.951874,174.786835 316.204468,174.786835 
	C316.204468,163.121506 316.204468,151.864960 316.204468,140.608414 
	C319.376740,150.892624 327.164825,152.992218 336.746185,152.362930 
	C340.521210,152.114990 344.353516,152.739014 348.541992,153.094696 
z"/>
<path fill="#1B04AE" opacity="1.000000" stroke="none" 
	d="
M349.214233,192.519165 
	C354.864685,196.689941 353.825867,202.178619 352.517456,207.281662 
	C351.234375,212.285934 346.909424,213.275055 342.232086,213.233292 
	C333.625183,213.156479 325.017120,213.211365 316.164429,213.211365 
	C316.164429,202.429855 316.164429,192.020493 316.164429,179.879623 
	C318.943817,189.778046 325.320007,191.437546 333.023956,191.334259 
	C338.300537,191.263489 343.587341,191.954163 349.214233,192.519165 
z"/>
<path fill="#1B03AE" opacity="1.000000" stroke="none" 
	d="
M177.446625,178.750885 
	C177.452393,194.779816 177.452393,210.333908 177.452393,226.549255 
	C168.756790,208.582550 152.210281,214.597290 138.120697,212.901871 
	C138.120697,188.594254 138.120697,164.455719 138.120697,138.854782 
	C141.917145,149.532669 149.079315,152.680374 158.392929,152.461990 
	C164.511368,152.318497 170.635910,152.434860 177.440872,152.434860 
	C177.440872,161.378937 177.440872,169.827499 177.446625,178.750885 
z"/>
<path fill="#1F08AF" opacity="1.000000" stroke="none" 
	d="
M226.321960,180.806580 
	C225.781067,180.963882 225.859695,180.998795 225.844421,180.959320 
	C226.062698,177.819199 226.474762,174.719864 226.497650,171.617676 
	C226.579590,160.503372 226.529739,149.388092 226.529739,137.797058 
	C227.143036,138.933853 227.690933,139.705978 228.002045,140.563965 
	C230.909515,148.582184 236.641159,152.300552 245.126801,152.366699 
	C248.919952,152.396286 252.782639,152.794525 256.480865,153.620468 
	C262.594452,154.985794 264.988342,157.878021 265.779327,163.776733 
	C266.631744,170.133469 264.684296,175.407700 259.260803,177.521088 
	C254.588638,179.341690 249.357742,180.058289 244.307648,180.492355 
	C238.530914,180.988876 232.680984,180.634125 226.321960,180.806580 
z"/>
<path fill="#230CB1" opacity="1.000000" stroke="none" 
	d="
M262.873169,324.818939 
	C258.958588,324.818939 255.515244,324.818939 251.247238,324.818939 
	C257.084473,311.079834 261.003906,297.657288 257.464111,283.199799 
	C257.921051,283.110626 258.377991,283.021484 258.834930,282.932312 
	C262.827301,296.732880 266.819672,310.533447 270.952332,324.818939 
	C267.975067,324.818939 265.659760,324.818939 262.873169,324.818939 
z"/>
<path fill="#1B03AE" opacity="1.000000" stroke="none" 
	d="
M153.134979,267.512238 
	C153.135040,265.924683 153.135040,264.762207 153.135040,263.591888 
	C153.417068,263.591888 153.837158,263.533783 153.857819,263.600128 
	C157.051620,273.852051 164.202652,278.102203 174.668274,277.469696 
	C176.483276,277.360046 178.332977,277.777832 180.142944,277.640167 
	C188.508240,277.003967 191.191422,281.576660 192.583405,288.254303 
	C193.151382,290.979065 193.088821,293.874084 193.024582,296.685028 
	C192.757477,308.371948 188.948822,312.066437 177.290787,312.056091 
	C169.647736,312.049316 162.004730,311.980042 154.361832,311.921051 
	C154.061996,311.918762 153.763550,311.733429 153.134918,311.523193 
	C153.134918,297.060089 153.134918,282.498688 153.134979,267.512238 
z"/>
</svg>